<svg width="21" height="20" viewBox="0 0 21 20" fill="none" xmlns="http://www.w3.org/2000/svg">
<path d="M17.9898 8.9061L4.86484 1.4147C4.6436 1.29059 4.38983 1.23673 4.13726 1.26028C3.88468 1.28383 3.64525 1.38366 3.45076 1.54653C3.25628 1.70939 3.11594 1.92757 3.04841 2.17209C2.98087 2.4166 2.98933 2.67588 3.07265 2.91548L5.49452 9.98345C5.49421 9.98604 5.49421 9.98866 5.49452 9.99126C5.49409 9.99384 5.49409 9.99648 5.49452 9.99907L3.07265 17.0827C3.00592 17.2711 2.98538 17.4729 3.01274 17.6709C3.0401 17.869 3.11458 18.0576 3.22991 18.2209C3.34525 18.3842 3.49808 18.5175 3.67557 18.6095C3.85307 18.7016 4.05005 18.7497 4.24999 18.7499C4.46692 18.7493 4.68004 18.6928 4.86874 18.5858L17.9867 11.0819C18.1802 10.9735 18.3414 10.8156 18.4537 10.6243C18.566 10.4331 18.6254 10.2154 18.6258 9.99357C18.6262 9.77178 18.5676 9.55388 18.456 9.36222C18.3443 9.17057 18.1837 9.01206 17.9906 8.90298L17.9898 8.9061ZM4.24999 17.4999V17.4928L6.60468 10.6249H11.125C11.2908 10.6249 11.4497 10.559 11.5669 10.4418C11.6841 10.3246 11.75 10.1656 11.75 9.99985C11.75 9.83409 11.6841 9.67512 11.5669 9.55791C11.4497 9.4407 11.2908 9.37485 11.125 9.37485H6.61093L4.25468 2.50923L4.24999 2.49985L17.375 9.98657L4.24999 17.4999Z" fill="#1C1C1C" fill-opacity="0.4"/>
</svg>
