<svg width="195" height="56" viewBox="0 0 195 56" fill="none" xmlns="http://www.w3.org/2000/svg">
<path d="M16.9219 15.7109L7.64062 44H0.164062L12.8438 9.875H17.6016L16.9219 15.7109ZM24.6328 44L15.3281 15.7109L14.5781 9.875H19.3828L32.1328 44H24.6328ZM24.2109 31.2969V36.8047H6.1875V31.2969H24.2109ZM49.5938 37.9297V18.6406H56.3438V44H49.9922L49.5938 37.9297ZM50.3438 32.7266L52.3359 32.6797C52.3359 34.3672 52.1406 35.9375 51.75 37.3906C51.3594 38.8281 50.7734 40.0781 49.9922 41.1406C49.2109 42.1875 48.2266 43.0078 47.0391 43.6016C45.8516 44.1797 44.4531 44.4688 42.8438 44.4688C41.6094 44.4688 40.4688 44.2969 39.4219 43.9531C38.3906 43.5938 37.5 43.0391 36.75 42.2891C36.0156 41.5234 35.4375 40.5469 35.0156 39.3594C34.6094 38.1562 34.4062 36.7109 34.4062 35.0234V18.6406H41.1562V35.0703C41.1562 35.8203 41.2422 36.4531 41.4141 36.9688C41.6016 37.4844 41.8594 37.9062 42.1875 38.2344C42.5156 38.5625 42.8984 38.7969 43.3359 38.9375C43.7891 39.0781 44.2891 39.1484 44.8359 39.1484C46.2266 39.1484 47.3203 38.8672 48.1172 38.3047C48.9297 37.7422 49.5 36.9766 49.8281 36.0078C50.1719 35.0234 50.3438 33.9297 50.3438 32.7266ZM73.9219 18.6406V23.4219H59.1562V18.6406H73.9219ZM62.8125 12.3828H69.5625V36.3594C69.5625 37.0938 69.6562 37.6562 69.8438 38.0469C70.0469 38.4375 70.3438 38.7109 70.7344 38.8672C71.125 39.0078 71.6172 39.0781 72.2109 39.0781C72.6328 39.0781 73.0078 39.0625 73.3359 39.0312C73.6797 38.9844 73.9688 38.9375 74.2031 38.8906L74.2266 43.8594C73.6484 44.0469 73.0234 44.1953 72.3516 44.3047C71.6797 44.4141 70.9375 44.4688 70.125 44.4688C68.6406 44.4688 67.3438 44.2266 66.2344 43.7422C65.1406 43.2422 64.2969 42.4453 63.7031 41.3516C63.1094 40.2578 62.8125 38.8203 62.8125 37.0391V12.3828ZM131.812 35.0703C131.812 34.4609 131.719 33.9141 131.531 33.4297C131.359 32.9297 131.031 32.4766 130.547 32.0703C130.062 31.6484 129.383 31.2344 128.508 30.8281C127.633 30.4219 126.5 30 125.109 29.5625C123.562 29.0625 122.094 28.5 120.703 27.875C119.328 27.25 118.109 26.5234 117.047 25.6953C116 24.8516 115.172 23.875 114.562 22.7656C113.969 21.6562 113.672 20.3672 113.672 18.8984C113.672 17.4766 113.984 16.1875 114.609 15.0312C115.234 13.8594 116.109 12.8594 117.234 12.0312C118.359 11.1875 119.688 10.5391 121.219 10.0859C122.766 9.63281 124.461 9.40625 126.305 9.40625C128.82 9.40625 131.016 9.85937 132.891 10.7656C134.766 11.6719 136.219 12.9141 137.25 14.4922C138.297 16.0703 138.82 17.875 138.82 19.9062H131.836C131.836 18.9062 131.625 18.0312 131.203 17.2812C130.797 16.5156 130.172 15.9141 129.328 15.4766C128.5 15.0391 127.453 14.8203 126.188 14.8203C124.969 14.8203 123.953 15.0078 123.141 15.3828C122.328 15.7422 121.719 16.2344 121.312 16.8594C120.906 17.4688 120.703 18.1562 120.703 18.9219C120.703 19.5 120.844 20.0234 121.125 20.4922C121.422 20.9609 121.859 21.3984 122.438 21.8047C123.016 22.2109 123.727 22.5938 124.57 22.9531C125.414 23.3125 126.391 23.6641 127.5 24.0078C129.359 24.5703 130.992 25.2031 132.398 25.9062C133.82 26.6094 135.008 27.3984 135.961 28.2734C136.914 29.1484 137.633 30.1406 138.117 31.25C138.602 32.3594 138.844 33.6172 138.844 35.0234C138.844 36.5078 138.555 37.8359 137.977 39.0078C137.398 40.1797 136.562 41.1719 135.469 41.9844C134.375 42.7969 133.07 43.4141 131.555 43.8359C130.039 44.2578 128.344 44.4688 126.469 44.4688C124.781 44.4688 123.117 44.25 121.477 43.8125C119.836 43.3594 118.344 42.6797 117 41.7734C115.672 40.8672 114.609 39.7109 113.812 38.3047C113.016 36.8984 112.617 35.2344 112.617 33.3125H119.672C119.672 34.375 119.836 35.2734 120.164 36.0078C120.492 36.7422 120.953 37.3359 121.547 37.7891C122.156 38.2422 122.875 38.5703 123.703 38.7734C124.547 38.9766 125.469 39.0781 126.469 39.0781C127.688 39.0781 128.688 38.9062 129.469 38.5625C130.266 38.2188 130.852 37.7422 131.227 37.1328C131.617 36.5234 131.812 35.8359 131.812 35.0703ZM158.203 37.9297V18.6406H164.953V44H158.602L158.203 37.9297ZM158.953 32.7266L160.945 32.6797C160.945 34.3672 160.75 35.9375 160.359 37.3906C159.969 38.8281 159.383 40.0781 158.602 41.1406C157.82 42.1875 156.836 43.0078 155.648 43.6016C154.461 44.1797 153.062 44.4688 151.453 44.4688C150.219 44.4688 149.078 44.2969 148.031 43.9531C147 43.5938 146.109 43.0391 145.359 42.2891C144.625 41.5234 144.047 40.5469 143.625 39.3594C143.219 38.1562 143.016 36.7109 143.016 35.0234V18.6406H149.766V35.0703C149.766 35.8203 149.852 36.4531 150.023 36.9688C150.211 37.4844 150.469 37.9062 150.797 38.2344C151.125 38.5625 151.508 38.7969 151.945 38.9375C152.398 39.0781 152.898 39.1484 153.445 39.1484C154.836 39.1484 155.93 38.8672 156.727 38.3047C157.539 37.7422 158.109 36.9766 158.438 36.0078C158.781 35.0234 158.953 33.9297 158.953 32.7266ZM170.109 8H176.859V38.1875L176.18 44H170.109V8ZM192.914 31.0625V31.5547C192.914 33.4453 192.711 35.1797 192.305 36.7578C191.914 38.3359 191.305 39.7031 190.477 40.8594C189.648 42 188.617 42.8906 187.383 43.5312C186.164 44.1562 184.727 44.4688 183.07 44.4688C181.523 44.4688 180.18 44.1562 179.039 43.5312C177.914 42.9062 176.969 42.0234 176.203 40.8828C175.438 39.7422 174.82 38.4062 174.352 36.875C173.883 35.3438 173.531 33.6719 173.297 31.8594V30.7812C173.531 28.9688 173.883 27.2969 174.352 25.7656C174.82 24.2344 175.438 22.8984 176.203 21.7578C176.969 20.6172 177.914 19.7344 179.039 19.1094C180.164 18.4844 181.492 18.1719 183.023 18.1719C184.695 18.1719 186.148 18.4922 187.383 19.1328C188.633 19.7578 189.664 20.6484 190.477 21.8047C191.305 22.9453 191.914 24.3047 192.305 25.8828C192.711 27.4453 192.914 29.1719 192.914 31.0625ZM186.164 31.5547V31.0625C186.164 30.0312 186.086 29.0625 185.93 28.1562C185.789 27.2344 185.539 26.4297 185.18 25.7422C184.82 25.0391 184.328 24.4844 183.703 24.0781C183.094 23.6719 182.305 23.4688 181.336 23.4688C180.414 23.4688 179.633 23.625 178.992 23.9375C178.352 24.25 177.82 24.6875 177.398 25.25C176.992 25.8125 176.688 26.4844 176.484 27.2656C176.281 28.0312 176.156 28.875 176.109 29.7969V32.8672C176.156 34.1016 176.359 35.1953 176.719 36.1484C177.094 37.0859 177.656 37.8281 178.406 38.375C179.172 38.9062 180.164 39.1719 181.383 39.1719C182.336 39.1719 183.125 38.9844 183.75 38.6094C184.375 38.2344 184.859 37.7031 185.203 37.0156C185.562 36.3281 185.812 35.5234 185.953 34.6016C186.094 33.6641 186.164 32.6484 186.164 31.5547Z" fill="#154C9E"/>
<path d="M108.298 28.4425C107.952 25.6088 106.705 22.9576 104.736 20.8728C102.768 18.7881 100.181 17.3779 97.3491 16.8466C94.5177 16.3152 91.5889 16.6903 88.987 17.9173C86.385 19.1444 84.2449 21.1599 82.8765 23.6719M88.4696 24.6105L83.2163 24.6105C82.4071 24.6105 81.751 23.9607 81.751 23.1592L81.751 17.9561" stroke="#589FD7" stroke-width="6" stroke-linecap="round"/>
<path d="M81.3234 31.771C81.672 34.6024 82.9207 37.2507 84.8891 39.3328C86.8575 41.4149 89.4434 42.823 92.2731 43.3535C95.1028 43.8839 98.0294 43.5092 100.63 42.2835C103.23 41.0578 105.37 39.0447 106.739 36.5353M101.15 35.5891L106.403 35.5891C107.213 35.5891 107.869 36.2388 107.869 37.0404L107.869 42.2435" stroke="#589FD7" stroke-width="6" stroke-linecap="round"/>
</svg>
