<svg width="281" height="28" viewBox="0 0 281 28" fill="none" xmlns="http://www.w3.org/2000/svg">
<path d="M1 12.8C1 10.5515 1.00039 8.89527 1.10733 7.58633C1.2138 6.28324 1.42338 5.36848 1.81745 4.59507C2.5365 3.18386 3.68386 2.0365 5.09507 1.31745C5.86848 0.923378 6.78324 0.7138 8.08633 0.607333C9.39526 0.500389 11.0515 0.5 13.3 0.5H267.7C269.948 0.5 271.605 0.500389 272.914 0.607333C274.217 0.7138 275.132 0.923377 275.905 1.31745C277.316 2.0365 278.464 3.18386 279.183 4.59507C279.577 5.36848 279.786 6.28324 279.893 7.58633C280 8.89526 280 10.5515 280 12.8V15.2C280 17.4485 280 19.1047 279.893 20.4137C279.786 21.7168 279.577 22.6315 279.183 23.4049C278.464 24.8161 277.316 25.9635 275.905 26.6826C275.132 27.0766 274.217 27.2862 272.914 27.3927C271.605 27.4996 269.948 27.5 267.7 27.5H13.3C11.0515 27.5 9.39526 27.4996 8.08633 27.3927C6.78324 27.2862 5.86848 27.0766 5.09507 26.6825C3.68386 25.9635 2.5365 24.8161 1.81745 23.4049C1.42338 22.6315 1.2138 21.7168 1.10733 20.4137C1.00039 19.1047 1 17.4485 1 15.2V12.8Z" stroke="black"/>
<path d="M47.1484 13.3262V14.3994H41.7617V13.3262H47.1484ZM41.9668 9.04688V19H40.6475V9.04688H41.9668ZM48.2969 9.04688V19H46.9844V9.04688H48.2969ZM50.1152 15.3838V15.2266C50.1152 14.6934 50.1927 14.1989 50.3477 13.7432C50.5026 13.2829 50.7259 12.8841 51.0176 12.5469C51.3092 12.2051 51.6624 11.9408 52.0771 11.7539C52.4919 11.5625 52.9567 11.4668 53.4717 11.4668C53.9912 11.4668 54.4583 11.5625 54.873 11.7539C55.2923 11.9408 55.6478 12.2051 55.9395 12.5469C56.2357 12.8841 56.4613 13.2829 56.6162 13.7432C56.7712 14.1989 56.8486 14.6934 56.8486 15.2266V15.3838C56.8486 15.917 56.7712 16.4115 56.6162 16.8672C56.4613 17.3229 56.2357 17.7217 55.9395 18.0635C55.6478 18.4007 55.2946 18.665 54.8799 18.8564C54.4697 19.0433 54.0049 19.1367 53.4854 19.1367C52.9658 19.1367 52.4987 19.0433 52.084 18.8564C51.6693 18.665 51.3138 18.4007 51.0176 18.0635C50.7259 17.7217 50.5026 17.3229 50.3477 16.8672C50.1927 16.4115 50.1152 15.917 50.1152 15.3838ZM51.3799 15.2266V15.3838C51.3799 15.7529 51.4232 16.1016 51.5098 16.4297C51.5964 16.7533 51.7262 17.0404 51.8994 17.291C52.0771 17.5417 52.2982 17.7399 52.5625 17.8857C52.8268 18.027 53.1344 18.0977 53.4854 18.0977C53.8317 18.0977 54.1348 18.027 54.3945 17.8857C54.6589 17.7399 54.8776 17.5417 55.0508 17.291C55.224 17.0404 55.3538 16.7533 55.4404 16.4297C55.5316 16.1016 55.5771 15.7529 55.5771 15.3838V15.2266C55.5771 14.862 55.5316 14.5179 55.4404 14.1943C55.3538 13.8662 55.2217 13.5768 55.0439 13.3262C54.8708 13.071 54.652 12.8704 54.3877 12.7246C54.1279 12.5788 53.8226 12.5059 53.4717 12.5059C53.1253 12.5059 52.82 12.5788 52.5557 12.7246C52.2959 12.8704 52.0771 13.071 51.8994 13.3262C51.7262 13.5768 51.5964 13.8662 51.5098 14.1943C51.4232 14.5179 51.3799 14.862 51.3799 15.2266ZM60.3076 17.6875L62.208 11.6035H63.042L62.8779 12.8135L60.9434 19H60.1299L60.3076 17.6875ZM59.0293 11.6035L60.6494 17.7559L60.7656 19H59.9111L57.7646 11.6035H59.0293ZM64.8604 17.708L66.4053 11.6035H67.6631L65.5166 19H64.6689L64.8604 17.708ZM63.2266 11.6035L65.0859 17.585L65.2979 19H64.4912L62.502 12.7998L62.3379 11.6035H63.2266ZM75.3945 18.0977C75.6953 18.0977 75.9733 18.0361 76.2285 17.9131C76.4837 17.79 76.6934 17.6214 76.8574 17.4072C77.0215 17.1885 77.1149 16.9401 77.1377 16.6621H78.3408C78.318 17.0996 78.1699 17.5075 77.8965 17.8857C77.6276 18.2594 77.2744 18.5625 76.8369 18.7949C76.3994 19.0228 75.9186 19.1367 75.3945 19.1367C74.8385 19.1367 74.3532 19.0387 73.9385 18.8428C73.5283 18.6468 73.1865 18.3779 72.9131 18.0361C72.6442 17.6943 72.4414 17.3024 72.3047 16.8604C72.1725 16.4137 72.1064 15.9421 72.1064 15.4453V15.1582C72.1064 14.6615 72.1725 14.1921 72.3047 13.75C72.4414 13.3034 72.6442 12.9092 72.9131 12.5674C73.1865 12.2256 73.5283 11.9567 73.9385 11.7607C74.3532 11.5648 74.8385 11.4668 75.3945 11.4668C75.9733 11.4668 76.4792 11.5853 76.9121 11.8223C77.3451 12.0547 77.6846 12.3737 77.9307 12.7793C78.1813 13.1803 78.318 13.6361 78.3408 14.1465H77.1377C77.1149 13.8411 77.0283 13.5654 76.8779 13.3193C76.7321 13.0732 76.5316 12.8773 76.2764 12.7314C76.0257 12.5811 75.7318 12.5059 75.3945 12.5059C75.0072 12.5059 74.6813 12.5833 74.417 12.7383C74.1572 12.8887 73.9499 13.0938 73.7949 13.3535C73.6445 13.6087 73.5352 13.8936 73.4668 14.208C73.403 14.5179 73.3711 14.8346 73.3711 15.1582V15.4453C73.3711 15.7689 73.403 16.0879 73.4668 16.4023C73.5306 16.7168 73.6377 17.0016 73.7881 17.2568C73.943 17.512 74.1504 17.7171 74.4102 17.8721C74.6745 18.0225 75.0026 18.0977 75.3945 18.0977ZM84.124 17.7354V13.9277C84.124 13.6361 84.0648 13.3831 83.9463 13.1689C83.8324 12.9502 83.6592 12.7816 83.4268 12.6631C83.1943 12.5446 82.9072 12.4854 82.5654 12.4854C82.2464 12.4854 81.9661 12.54 81.7246 12.6494C81.4876 12.7588 81.3008 12.9023 81.1641 13.0801C81.0319 13.2578 80.9658 13.4492 80.9658 13.6543H79.7012C79.7012 13.39 79.7695 13.1279 79.9062 12.8682C80.043 12.6084 80.2389 12.3737 80.4941 12.1641C80.7539 11.9499 81.0638 11.7812 81.4238 11.6582C81.7884 11.5306 82.194 11.4668 82.6406 11.4668C83.1784 11.4668 83.6523 11.5579 84.0625 11.7402C84.4772 11.9225 84.8008 12.1982 85.0332 12.5674C85.2702 12.932 85.3887 13.39 85.3887 13.9414V17.3867C85.3887 17.6328 85.4092 17.8949 85.4502 18.1729C85.4958 18.4508 85.5618 18.6901 85.6484 18.8906V19H84.3291C84.2653 18.8542 84.2152 18.6605 84.1787 18.4189C84.1423 18.1729 84.124 17.945 84.124 17.7354ZM84.3428 14.5156L84.3564 15.4043H83.0781C82.7181 15.4043 82.3968 15.4339 82.1143 15.4932C81.8317 15.5479 81.5947 15.6322 81.4033 15.7461C81.2119 15.86 81.0661 16.0036 80.9658 16.1768C80.8656 16.3454 80.8154 16.5436 80.8154 16.7715C80.8154 17.0039 80.8678 17.2158 80.9727 17.4072C81.0775 17.5986 81.2347 17.7513 81.4443 17.8652C81.6585 17.9746 81.9206 18.0293 82.2305 18.0293C82.6178 18.0293 82.9596 17.9473 83.2559 17.7832C83.5521 17.6191 83.7868 17.4186 83.96 17.1816C84.1377 16.9447 84.2334 16.7145 84.2471 16.4912L84.7871 17.0996C84.7552 17.291 84.6686 17.5029 84.5273 17.7354C84.3861 17.9678 84.1969 18.1911 83.96 18.4053C83.7275 18.6149 83.4495 18.7904 83.126 18.9316C82.807 19.0684 82.4469 19.1367 82.0459 19.1367C81.5446 19.1367 81.1048 19.0387 80.7266 18.8428C80.3529 18.6468 80.0612 18.3848 79.8516 18.0566C79.6465 17.724 79.5439 17.3525 79.5439 16.9424C79.5439 16.5459 79.6214 16.1973 79.7764 15.8965C79.9313 15.5911 80.1546 15.3382 80.4463 15.1377C80.738 14.9326 81.0889 14.7777 81.499 14.6729C81.9092 14.568 82.3672 14.5156 82.873 14.5156H84.3428ZM88.6426 13.1826V19H87.3779V11.6035H88.5742L88.6426 13.1826ZM88.3418 15.0215L87.8154 15.001C87.82 14.4951 87.8952 14.028 88.041 13.5996C88.1868 13.1667 88.3919 12.7907 88.6562 12.4717C88.9206 12.1527 89.235 11.9066 89.5996 11.7334C89.9688 11.5557 90.3766 11.4668 90.8232 11.4668C91.1878 11.4668 91.516 11.5169 91.8076 11.6172C92.0993 11.7129 92.3477 11.8678 92.5527 12.082C92.7624 12.2962 92.9219 12.5742 93.0312 12.916C93.1406 13.2533 93.1953 13.6657 93.1953 14.1533V19H91.9238V14.1396C91.9238 13.7523 91.8669 13.4424 91.7529 13.21C91.639 12.973 91.4727 12.8021 91.2539 12.6973C91.0352 12.5879 90.7663 12.5332 90.4473 12.5332C90.1328 12.5332 89.8457 12.5993 89.5859 12.7314C89.3307 12.8636 89.1097 13.0459 88.9229 13.2783C88.7406 13.5107 88.597 13.7773 88.4922 14.0781C88.3919 14.3743 88.3418 14.6888 88.3418 15.0215ZM100.195 9.04688V19H98.876V9.04688H100.195ZM107.25 8.5V19H105.979V8.5H107.25ZM108.945 15.3838V15.2266C108.945 14.6934 109.023 14.1989 109.178 13.7432C109.333 13.2829 109.556 12.8841 109.848 12.5469C110.139 12.2051 110.493 11.9408 110.907 11.7539C111.322 11.5625 111.787 11.4668 112.302 11.4668C112.821 11.4668 113.288 11.5625 113.703 11.7539C114.122 11.9408 114.478 12.2051 114.77 12.5469C115.066 12.8841 115.291 13.2829 115.446 13.7432C115.601 14.1989 115.679 14.6934 115.679 15.2266V15.3838C115.679 15.917 115.601 16.4115 115.446 16.8672C115.291 17.3229 115.066 17.7217 114.77 18.0635C114.478 18.4007 114.125 18.665 113.71 18.8564C113.3 19.0433 112.835 19.1367 112.315 19.1367C111.796 19.1367 111.329 19.0433 110.914 18.8564C110.499 18.665 110.144 18.4007 109.848 18.0635C109.556 17.7217 109.333 17.3229 109.178 16.8672C109.023 16.4115 108.945 15.917 108.945 15.3838ZM110.21 15.2266V15.3838C110.21 15.7529 110.253 16.1016 110.34 16.4297C110.426 16.7533 110.556 17.0404 110.729 17.291C110.907 17.5417 111.128 17.7399 111.393 17.8857C111.657 18.027 111.965 18.0977 112.315 18.0977C112.662 18.0977 112.965 18.027 113.225 17.8857C113.489 17.7399 113.708 17.5417 113.881 17.291C114.054 17.0404 114.184 16.7533 114.271 16.4297C114.362 16.1016 114.407 15.7529 114.407 15.3838V15.2266C114.407 14.862 114.362 14.5179 114.271 14.1943C114.184 13.8662 114.052 13.5768 113.874 13.3262C113.701 13.071 113.482 12.8704 113.218 12.7246C112.958 12.5788 112.653 12.5059 112.302 12.5059C111.955 12.5059 111.65 12.5788 111.386 12.7246C111.126 12.8704 110.907 13.071 110.729 13.3262C110.556 13.5768 110.426 13.8662 110.34 14.1943C110.253 14.5179 110.21 14.862 110.21 15.2266ZM119.138 17.6875L121.038 11.6035H121.872L121.708 12.8135L119.773 19H118.96L119.138 17.6875ZM117.859 11.6035L119.479 17.7559L119.596 19H118.741L116.595 11.6035H117.859ZM123.69 17.708L125.235 11.6035H126.493L124.347 19H123.499L123.69 17.708ZM122.057 11.6035L123.916 17.585L124.128 19H123.321L121.332 12.7998L121.168 11.6035H122.057ZM130.861 19.1367C130.346 19.1367 129.879 19.0501 129.46 18.877C129.045 18.6992 128.688 18.4508 128.387 18.1318C128.09 17.8128 127.863 17.4346 127.703 16.9971C127.544 16.5596 127.464 16.0811 127.464 15.5615V15.2744C127.464 14.6729 127.553 14.1374 127.73 13.668C127.908 13.194 128.15 12.793 128.455 12.4648C128.76 12.1367 129.107 11.8883 129.494 11.7197C129.882 11.5511 130.283 11.4668 130.697 11.4668C131.226 11.4668 131.682 11.5579 132.064 11.7402C132.452 11.9225 132.769 12.1777 133.015 12.5059C133.261 12.8294 133.443 13.2122 133.562 13.6543C133.68 14.0918 133.739 14.5703 133.739 15.0898V15.6572H128.216V14.625H132.475V14.5293C132.456 14.2012 132.388 13.8822 132.27 13.5723C132.156 13.2624 131.973 13.0072 131.723 12.8066C131.472 12.6061 131.13 12.5059 130.697 12.5059C130.41 12.5059 130.146 12.5674 129.904 12.6904C129.663 12.8089 129.455 12.9867 129.282 13.2236C129.109 13.4606 128.975 13.75 128.879 14.0918C128.783 14.4336 128.735 14.8278 128.735 15.2744V15.5615C128.735 15.9124 128.783 16.2428 128.879 16.5527C128.979 16.8581 129.123 17.127 129.31 17.3594C129.501 17.5918 129.731 17.7741 130 17.9062C130.273 18.0384 130.583 18.1045 130.93 18.1045C131.376 18.1045 131.755 18.0133 132.064 17.8311C132.374 17.6488 132.646 17.4049 132.878 17.0996L133.644 17.708C133.484 17.9495 133.281 18.1797 133.035 18.3984C132.789 18.6172 132.486 18.7949 132.126 18.9316C131.771 19.0684 131.349 19.1367 130.861 19.1367ZM136.48 12.7656V19H135.216V11.6035H136.446L136.48 12.7656ZM138.791 11.5625L138.784 12.7383C138.679 12.7155 138.579 12.7018 138.483 12.6973C138.392 12.6882 138.287 12.6836 138.169 12.6836C137.877 12.6836 137.62 12.7292 137.396 12.8203C137.173 12.9115 136.984 13.0391 136.829 13.2031C136.674 13.3672 136.551 13.5632 136.46 13.791C136.373 14.0143 136.316 14.2604 136.289 14.5293L135.934 14.7344C135.934 14.2878 135.977 13.8685 136.063 13.4766C136.155 13.0846 136.294 12.7383 136.48 12.4375C136.667 12.1322 136.904 11.8952 137.191 11.7266C137.483 11.5534 137.829 11.4668 138.23 11.4668C138.322 11.4668 138.426 11.4782 138.545 11.501C138.663 11.5192 138.745 11.5397 138.791 11.5625ZM144.69 13.0732V19H143.419V11.6035H144.622L144.69 13.0732ZM144.431 15.0215L143.843 15.001C143.847 14.4951 143.913 14.028 144.041 13.5996C144.169 13.1667 144.358 12.7907 144.608 12.4717C144.859 12.1527 145.171 11.9066 145.545 11.7334C145.919 11.5557 146.352 11.4668 146.844 11.4668C147.19 11.4668 147.509 11.5169 147.801 11.6172C148.092 11.7129 148.345 11.8656 148.56 12.0752C148.774 12.2848 148.94 12.5537 149.059 12.8818C149.177 13.21 149.236 13.6064 149.236 14.0713V19H147.972V14.1328C147.972 13.7454 147.906 13.4355 147.773 13.2031C147.646 12.9707 147.464 12.8021 147.227 12.6973C146.99 12.5879 146.712 12.5332 146.393 12.5332C146.019 12.5332 145.707 12.5993 145.456 12.7314C145.205 12.8636 145.005 13.0459 144.854 13.2783C144.704 13.5107 144.595 13.7773 144.526 14.0781C144.463 14.3743 144.431 14.6888 144.431 15.0215ZM149.223 14.3242L148.375 14.584C148.38 14.1784 148.446 13.7887 148.573 13.415C148.705 13.0413 148.895 12.7087 149.141 12.417C149.391 12.1253 149.699 11.8952 150.063 11.7266C150.428 11.5534 150.845 11.4668 151.314 11.4668C151.711 11.4668 152.062 11.5192 152.367 11.624C152.677 11.7288 152.937 11.8906 153.146 12.1094C153.361 12.3236 153.522 12.5993 153.632 12.9365C153.741 13.2738 153.796 13.6748 153.796 14.1396V19H152.524V14.126C152.524 13.7113 152.458 13.39 152.326 13.1621C152.199 12.9297 152.016 12.7679 151.779 12.6768C151.547 12.5811 151.269 12.5332 150.945 12.5332C150.667 12.5332 150.421 12.5811 150.207 12.6768C149.993 12.7725 149.813 12.9046 149.667 13.0732C149.521 13.2373 149.41 13.4264 149.332 13.6406C149.259 13.8548 149.223 14.0827 149.223 14.3242ZM157.788 18.2344L159.846 11.6035H161.199L158.232 20.1416C158.164 20.3239 158.073 20.5199 157.959 20.7295C157.85 20.9437 157.708 21.1465 157.535 21.3379C157.362 21.5293 157.152 21.6842 156.906 21.8027C156.665 21.9258 156.375 21.9873 156.038 21.9873C155.938 21.9873 155.81 21.9736 155.655 21.9463C155.5 21.9189 155.391 21.8962 155.327 21.8779L155.32 20.8525C155.357 20.8571 155.414 20.8617 155.491 20.8662C155.573 20.8753 155.63 20.8799 155.662 20.8799C155.949 20.8799 156.193 20.8411 156.394 20.7637C156.594 20.6908 156.763 20.5654 156.899 20.3877C157.041 20.2145 157.161 19.9753 157.262 19.6699L157.788 18.2344ZM156.277 11.6035L158.198 17.3457L158.526 18.6787L157.617 19.1436L154.896 11.6035H156.277ZM168.773 18.0977C169.074 18.0977 169.352 18.0361 169.607 17.9131C169.863 17.79 170.072 17.6214 170.236 17.4072C170.4 17.1885 170.494 16.9401 170.517 16.6621H171.72C171.697 17.0996 171.549 17.5075 171.275 17.8857C171.007 18.2594 170.653 18.5625 170.216 18.7949C169.778 19.0228 169.298 19.1367 168.773 19.1367C168.217 19.1367 167.732 19.0387 167.317 18.8428C166.907 18.6468 166.565 18.3779 166.292 18.0361C166.023 17.6943 165.82 17.3024 165.684 16.8604C165.551 16.4137 165.485 15.9421 165.485 15.4453V15.1582C165.485 14.6615 165.551 14.1921 165.684 13.75C165.82 13.3034 166.023 12.9092 166.292 12.5674C166.565 12.2256 166.907 11.9567 167.317 11.7607C167.732 11.5648 168.217 11.4668 168.773 11.4668C169.352 11.4668 169.858 11.5853 170.291 11.8223C170.724 12.0547 171.063 12.3737 171.31 12.7793C171.56 13.1803 171.697 13.6361 171.72 14.1465H170.517C170.494 13.8411 170.407 13.5654 170.257 13.3193C170.111 13.0732 169.91 12.8773 169.655 12.7314C169.405 12.5811 169.111 12.5059 168.773 12.5059C168.386 12.5059 168.06 12.5833 167.796 12.7383C167.536 12.8887 167.329 13.0938 167.174 13.3535C167.023 13.6087 166.914 13.8936 166.846 14.208C166.782 14.5179 166.75 14.8346 166.75 15.1582V15.4453C166.75 15.7689 166.782 16.0879 166.846 16.4023C166.91 16.7168 167.017 17.0016 167.167 17.2568C167.322 17.512 167.529 17.7171 167.789 17.8721C168.053 18.0225 168.382 18.0977 168.773 18.0977ZM174.406 8.5V19H173.142V8.5H174.406ZM174.105 15.0215L173.579 15.001C173.584 14.4951 173.659 14.028 173.805 13.5996C173.951 13.1667 174.156 12.7907 174.42 12.4717C174.684 12.1527 174.999 11.9066 175.363 11.7334C175.732 11.5557 176.14 11.4668 176.587 11.4668C176.951 11.4668 177.28 11.5169 177.571 11.6172C177.863 11.7129 178.111 11.8678 178.316 12.082C178.526 12.2962 178.686 12.5742 178.795 12.916C178.904 13.2533 178.959 13.6657 178.959 14.1533V19H177.688V14.1396C177.688 13.7523 177.631 13.4424 177.517 13.21C177.403 12.973 177.236 12.8021 177.018 12.6973C176.799 12.5879 176.53 12.5332 176.211 12.5332C175.896 12.5332 175.609 12.5993 175.35 12.7314C175.094 12.8636 174.873 13.0459 174.687 13.2783C174.504 13.5107 174.361 13.7773 174.256 14.0781C174.156 14.3743 174.105 14.6888 174.105 15.0215ZM185.378 17.291V11.6035H186.649V19H185.439L185.378 17.291ZM185.617 15.7324L186.144 15.7188C186.144 16.2109 186.091 16.6667 185.986 17.0859C185.886 17.5007 185.722 17.8607 185.494 18.166C185.266 18.4714 184.968 18.7106 184.599 18.8838C184.229 19.0524 183.781 19.1367 183.252 19.1367C182.892 19.1367 182.562 19.0843 182.261 18.9795C181.965 18.8747 181.709 18.7129 181.495 18.4941C181.281 18.2754 181.115 17.9906 180.996 17.6396C180.882 17.2887 180.825 16.8672 180.825 16.375V11.6035H182.09V16.3887C182.09 16.7214 182.126 16.9971 182.199 17.2158C182.277 17.43 182.379 17.6009 182.507 17.7285C182.639 17.8516 182.785 17.9382 182.944 17.9883C183.108 18.0384 183.277 18.0635 183.45 18.0635C183.988 18.0635 184.414 17.9609 184.729 17.7559C185.043 17.5462 185.269 17.266 185.405 16.915C185.547 16.5596 185.617 16.1654 185.617 15.7324ZM189.842 12.7656V19H188.577V11.6035H189.808L189.842 12.7656ZM192.152 11.5625L192.146 12.7383C192.041 12.7155 191.94 12.7018 191.845 12.6973C191.754 12.6882 191.649 12.6836 191.53 12.6836C191.239 12.6836 190.981 12.7292 190.758 12.8203C190.535 12.9115 190.345 13.0391 190.19 13.2031C190.035 13.3672 189.912 13.5632 189.821 13.791C189.735 14.0143 189.678 14.2604 189.65 14.5293L189.295 14.7344C189.295 14.2878 189.338 13.8685 189.425 13.4766C189.516 13.0846 189.655 12.7383 189.842 12.4375C190.029 12.1322 190.266 11.8952 190.553 11.7266C190.844 11.5534 191.191 11.4668 191.592 11.4668C191.683 11.4668 191.788 11.4782 191.906 11.501C192.025 11.5192 192.107 11.5397 192.152 11.5625ZM194.586 13.1826V19H193.321V11.6035H194.518L194.586 13.1826ZM194.285 15.0215L193.759 15.001C193.763 14.4951 193.839 14.028 193.984 13.5996C194.13 13.1667 194.335 12.7907 194.6 12.4717C194.864 12.1527 195.178 11.9066 195.543 11.7334C195.912 11.5557 196.32 11.4668 196.767 11.4668C197.131 11.4668 197.459 11.5169 197.751 11.6172C198.043 11.7129 198.291 11.8678 198.496 12.082C198.706 12.2962 198.865 12.5742 198.975 12.916C199.084 13.2533 199.139 13.6657 199.139 14.1533V19H197.867V14.1396C197.867 13.7523 197.81 13.4424 197.696 13.21C197.582 12.973 197.416 12.8021 197.197 12.6973C196.979 12.5879 196.71 12.5332 196.391 12.5332C196.076 12.5332 195.789 12.5993 195.529 12.7314C195.274 12.8636 195.053 13.0459 194.866 13.2783C194.684 13.5107 194.54 13.7773 194.436 14.0781C194.335 14.3743 194.285 14.6888 194.285 15.0215ZM205.797 12.7656V19H204.532V11.6035H205.763L205.797 12.7656ZM208.107 11.5625L208.101 12.7383C207.996 12.7155 207.896 12.7018 207.8 12.6973C207.709 12.6882 207.604 12.6836 207.485 12.6836C207.194 12.6836 206.936 12.7292 206.713 12.8203C206.49 12.9115 206.3 13.0391 206.146 13.2031C205.991 13.3672 205.868 13.5632 205.776 13.791C205.69 14.0143 205.633 14.2604 205.605 14.5293L205.25 14.7344C205.25 14.2878 205.293 13.8685 205.38 13.4766C205.471 13.0846 205.61 12.7383 205.797 12.4375C205.984 12.1322 206.221 11.8952 206.508 11.7266C206.799 11.5534 207.146 11.4668 207.547 11.4668C207.638 11.4668 207.743 11.4782 207.861 11.501C207.98 11.5192 208.062 11.5397 208.107 11.5625ZM213.364 17.7354V13.9277C213.364 13.6361 213.305 13.3831 213.187 13.1689C213.073 12.9502 212.899 12.7816 212.667 12.6631C212.435 12.5446 212.147 12.4854 211.806 12.4854C211.487 12.4854 211.206 12.54 210.965 12.6494C210.728 12.7588 210.541 12.9023 210.404 13.0801C210.272 13.2578 210.206 13.4492 210.206 13.6543H208.941C208.941 13.39 209.01 13.1279 209.146 12.8682C209.283 12.6084 209.479 12.3737 209.734 12.1641C209.994 11.9499 210.304 11.7812 210.664 11.6582C211.029 11.5306 211.434 11.4668 211.881 11.4668C212.419 11.4668 212.893 11.5579 213.303 11.7402C213.717 11.9225 214.041 12.1982 214.273 12.5674C214.51 12.932 214.629 13.39 214.629 13.9414V17.3867C214.629 17.6328 214.649 17.8949 214.69 18.1729C214.736 18.4508 214.802 18.6901 214.889 18.8906V19H213.569C213.506 18.8542 213.455 18.6605 213.419 18.4189C213.382 18.1729 213.364 17.945 213.364 17.7354ZM213.583 14.5156L213.597 15.4043H212.318C211.958 15.4043 211.637 15.4339 211.354 15.4932C211.072 15.5479 210.835 15.6322 210.644 15.7461C210.452 15.86 210.306 16.0036 210.206 16.1768C210.106 16.3454 210.056 16.5436 210.056 16.7715C210.056 17.0039 210.108 17.2158 210.213 17.4072C210.318 17.5986 210.475 17.7513 210.685 17.8652C210.899 17.9746 211.161 18.0293 211.471 18.0293C211.858 18.0293 212.2 17.9473 212.496 17.7832C212.792 17.6191 213.027 17.4186 213.2 17.1816C213.378 16.9447 213.474 16.7145 213.487 16.4912L214.027 17.0996C213.995 17.291 213.909 17.5029 213.768 17.7354C213.626 17.9678 213.437 18.1911 213.2 18.4053C212.968 18.6149 212.69 18.7904 212.366 18.9316C212.047 19.0684 211.687 19.1367 211.286 19.1367C210.785 19.1367 210.345 19.0387 209.967 18.8428C209.593 18.6468 209.301 18.3848 209.092 18.0566C208.887 17.724 208.784 17.3525 208.784 16.9424C208.784 16.5459 208.862 16.1973 209.017 15.8965C209.172 15.5911 209.395 15.3382 209.687 15.1377C209.978 14.9326 210.329 14.7777 210.739 14.6729C211.149 14.568 211.607 14.5156 212.113 14.5156H213.583ZM219.715 11.6035V12.5742H215.716V11.6035H219.715ZM217.069 9.80566H218.334V17.168C218.334 17.4186 218.373 17.6077 218.45 17.7354C218.528 17.863 218.628 17.9473 218.751 17.9883C218.874 18.0293 219.006 18.0498 219.147 18.0498C219.252 18.0498 219.362 18.0407 219.476 18.0225C219.594 17.9997 219.683 17.9814 219.742 17.9678L219.749 19C219.649 19.0319 219.517 19.0615 219.353 19.0889C219.193 19.1208 218.999 19.1367 218.771 19.1367C218.462 19.1367 218.177 19.0752 217.917 18.9521C217.657 18.8291 217.45 18.624 217.295 18.3369C217.145 18.0452 217.069 17.6533 217.069 17.1611V9.80566ZM224.268 19.1367C223.753 19.1367 223.285 19.0501 222.866 18.877C222.451 18.6992 222.094 18.4508 221.793 18.1318C221.497 17.8128 221.269 17.4346 221.109 16.9971C220.95 16.5596 220.87 16.0811 220.87 15.5615V15.2744C220.87 14.6729 220.959 14.1374 221.137 13.668C221.314 13.194 221.556 12.793 221.861 12.4648C222.167 12.1367 222.513 11.8883 222.9 11.7197C223.288 11.5511 223.689 11.4668 224.104 11.4668C224.632 11.4668 225.088 11.5579 225.471 11.7402C225.858 11.9225 226.175 12.1777 226.421 12.5059C226.667 12.8294 226.849 13.2122 226.968 13.6543C227.086 14.0918 227.146 14.5703 227.146 15.0898V15.6572H221.622V14.625H225.881V14.5293C225.863 14.2012 225.794 13.8822 225.676 13.5723C225.562 13.2624 225.38 13.0072 225.129 12.8066C224.878 12.6061 224.536 12.5059 224.104 12.5059C223.816 12.5059 223.552 12.5674 223.311 12.6904C223.069 12.8089 222.862 12.9867 222.688 13.2236C222.515 13.4606 222.381 13.75 222.285 14.0918C222.189 14.4336 222.142 14.8278 222.142 15.2744V15.5615C222.142 15.9124 222.189 16.2428 222.285 16.5527C222.385 16.8581 222.529 17.127 222.716 17.3594C222.907 17.5918 223.137 17.7741 223.406 17.9062C223.68 18.0384 223.99 18.1045 224.336 18.1045C224.783 18.1045 225.161 18.0133 225.471 17.8311C225.781 17.6488 226.052 17.4049 226.284 17.0996L227.05 17.708C226.89 17.9495 226.688 18.1797 226.441 18.3984C226.195 18.6172 225.892 18.7949 225.532 18.9316C225.177 19.0684 224.755 19.1367 224.268 19.1367ZM232.929 17.0381C232.929 16.8558 232.888 16.6872 232.806 16.5322C232.728 16.3727 232.566 16.2292 232.32 16.1016C232.079 15.9694 231.714 15.8555 231.227 15.7598C230.816 15.6732 230.445 15.5706 230.112 15.4521C229.784 15.3337 229.504 15.1901 229.271 15.0215C229.044 14.8529 228.868 14.6546 228.745 14.4268C228.622 14.1989 228.561 13.9323 228.561 13.627C228.561 13.3353 228.624 13.0596 228.752 12.7998C228.884 12.54 229.069 12.3099 229.306 12.1094C229.547 11.9089 229.837 11.7516 230.174 11.6377C230.511 11.5238 230.887 11.4668 231.302 11.4668C231.894 11.4668 232.4 11.5716 232.819 11.7812C233.239 11.9909 233.56 12.2712 233.783 12.6221C234.007 12.9684 234.118 13.3535 234.118 13.7773H232.854C232.854 13.5723 232.792 13.374 232.669 13.1826C232.55 12.9867 232.375 12.8249 232.143 12.6973C231.915 12.5697 231.634 12.5059 231.302 12.5059C230.951 12.5059 230.666 12.5605 230.447 12.6699C230.233 12.7747 230.076 12.9092 229.976 13.0732C229.88 13.2373 229.832 13.4105 229.832 13.5928C229.832 13.7295 229.855 13.8525 229.9 13.9619C229.951 14.0667 230.037 14.1647 230.16 14.2559C230.283 14.3424 230.456 14.4245 230.68 14.502C230.903 14.5794 231.188 14.6569 231.534 14.7344C232.14 14.8711 232.639 15.0352 233.031 15.2266C233.423 15.418 233.715 15.6527 233.906 15.9307C234.098 16.2087 234.193 16.5459 234.193 16.9424C234.193 17.266 234.125 17.5622 233.988 17.8311C233.856 18.0999 233.662 18.3324 233.407 18.5283C233.157 18.7197 232.856 18.8701 232.505 18.9795C232.159 19.0843 231.769 19.1367 231.336 19.1367C230.684 19.1367 230.133 19.0205 229.682 18.7881C229.23 18.5557 228.889 18.2549 228.656 17.8857C228.424 17.5166 228.308 17.127 228.308 16.7168H229.579C229.597 17.0632 229.698 17.3389 229.88 17.5439C230.062 17.7445 230.285 17.888 230.55 17.9746C230.814 18.0566 231.076 18.0977 231.336 18.0977C231.682 18.0977 231.972 18.0521 232.204 17.9609C232.441 17.8698 232.621 17.7445 232.744 17.585C232.867 17.4255 232.929 17.2432 232.929 17.0381ZM238.603 16.1973H237.331C237.336 15.7598 237.374 15.402 237.447 15.124C237.525 14.8415 237.65 14.584 237.823 14.3516C237.996 14.1191 238.227 13.8548 238.514 13.5586C238.723 13.3444 238.915 13.1439 239.088 12.957C239.266 12.7656 239.409 12.5605 239.519 12.3418C239.628 12.1185 239.683 11.8519 239.683 11.542C239.683 11.2275 239.626 10.9564 239.512 10.7285C239.402 10.5007 239.238 10.3252 239.02 10.2021C238.805 10.0791 238.539 10.0176 238.22 10.0176C237.955 10.0176 237.705 10.0654 237.468 10.1611C237.231 10.2568 237.039 10.4049 236.894 10.6055C236.748 10.8014 236.673 11.0589 236.668 11.3779H235.403C235.412 10.863 235.54 10.4209 235.786 10.0518C236.037 9.68262 236.374 9.40007 236.798 9.2041C237.222 9.00814 237.696 8.91016 238.22 8.91016C238.799 8.91016 239.291 9.01497 239.696 9.22461C240.106 9.43424 240.419 9.73503 240.633 10.127C240.847 10.5143 240.954 10.9746 240.954 11.5078C240.954 11.918 240.87 12.2962 240.701 12.6426C240.537 12.9844 240.325 13.3057 240.065 13.6064C239.806 13.9072 239.53 14.1943 239.238 14.4678C238.988 14.7002 238.819 14.9622 238.732 15.2539C238.646 15.5456 238.603 15.86 238.603 16.1973ZM237.276 18.3643C237.276 18.1592 237.34 17.986 237.468 17.8447C237.595 17.7035 237.78 17.6328 238.021 17.6328C238.268 17.6328 238.454 17.7035 238.582 17.8447C238.71 17.986 238.773 18.1592 238.773 18.3643C238.773 18.5602 238.71 18.7288 238.582 18.8701C238.454 19.0114 238.268 19.082 238.021 19.082C237.78 19.082 237.595 19.0114 237.468 18.8701C237.34 18.7288 237.276 18.5602 237.276 18.3643Z" fill="#1C1C1C"/>
<circle cx="19.5" cy="13" r="7" stroke="#154C9E" stroke-width="2"/>
<path d="M19.5 10C19.106 10 18.7159 10.0776 18.3519 10.2284C17.988 10.3791 17.6573 10.6001 17.3787 10.8787C17.1001 11.1573 16.8791 11.488 16.7284 11.852C16.5776 12.2159 16.5 12.606 16.5 13" stroke="#154C9E" stroke-width="2" stroke-linecap="round"/>
<path d="M28.5 22L25.5 19" stroke="#154C9E" stroke-width="2" stroke-linecap="round"/>
</svg>
