<svg width="26" height="27" viewBox="0 0 26 27" fill="none" xmlns="http://www.w3.org/2000/svg">
<path fill-rule="evenodd" clip-rule="evenodd" d="M9.99995 3.76304L8.73888 7.17103C8.38438 8.12905 7.62905 8.88438 6.67103 9.23888L3.26304 10.5L6.67103 11.761C7.62905 12.1155 8.38438 12.8709 8.73888 13.8289L9.99995 17.2369L11.261 13.8289C11.6155 12.8709 12.3709 12.1155 13.3289 11.761L16.7369 10.5L13.3289 9.23888C12.3709 8.88438 11.6155 8.12905 11.261 7.17103L9.99995 3.76304ZM11.4067 1.80171C10.9235 0.495784 9.07641 0.495784 8.59318 1.80171L6.86318 6.47696C6.71125 6.88754 6.38754 7.21125 5.97696 7.36318L1.30171 9.09318C-0.00421631 9.57641 -0.00421607 11.4235 1.30171 11.9067L5.97696 13.6367C6.38754 13.7887 6.71125 14.1124 6.86318 14.523L8.59318 19.1982C9.07641 20.5041 10.9235 20.5041 11.4067 19.1982L13.1367 14.523C13.2887 14.1124 13.6124 13.7887 14.023 13.6367L18.6982 11.9067C20.0041 11.4235 20.0041 9.57641 18.6982 9.09318L14.023 7.36318C13.6124 7.21125 13.2887 6.88754 13.1367 6.47696L11.4067 1.80171Z" fill="#1C1C1C"/>
<path fill-rule="evenodd" clip-rule="evenodd" d="M19.9998 17.3223L19.5404 18.5636C19.2872 19.2479 18.7477 19.7875 18.0634 20.0407L16.8221 20.5L18.0634 20.9593C18.7477 21.2125 19.2872 21.7521 19.5404 22.4364L19.9998 23.6777L20.4591 22.4364C20.7123 21.7521 21.2518 21.2125 21.9361 20.9593L23.1774 20.5L21.9361 20.0407C21.2518 19.7875 20.7123 19.2479 20.4591 18.5636L19.9998 17.3223ZM20.9376 15.5345C20.6155 14.6639 19.3841 14.6639 19.0619 15.5345L18.1337 18.0431C18.0324 18.3168 17.8166 18.5326 17.5428 18.6339L15.0343 19.5622C14.1636 19.8843 14.1636 21.1157 15.0343 21.4379L17.5428 22.3661C17.8166 22.4674 18.0324 22.6832 18.1337 22.9569L19.0619 25.4655C19.3841 26.3361 20.6155 26.3361 20.9376 25.4655L21.8659 22.9569C21.9672 22.6832 22.183 22.4674 22.4567 22.3661L24.9653 21.4379C25.8359 21.1157 25.8359 19.8843 24.9653 19.5622L22.4567 18.6339C22.183 18.5326 21.9672 18.3168 21.8659 18.0431L20.9376 15.5345Z" fill="#1C1C1C"/>
</svg>
