<svg width="20" height="16" viewBox="0 0 20 16" fill="none" xmlns="http://www.w3.org/2000/svg">
<circle cx="9.76855" cy="4" r="3" stroke="#33363F" stroke-width="2" stroke-linecap="round"/>
<path d="M13.0365 4C13.3017 3.54063 13.7386 3.20543 14.2509 3.06815C14.7633 2.93086 15.3092 3.00273 15.7686 3.26795C16.2279 3.53317 16.5631 3.97 16.7004 4.48236C16.8377 4.99472 16.7658 5.54063 16.5006 6C16.2354 6.45937 15.7986 6.79457 15.2862 6.93185C14.7738 7.06914 14.2279 6.99727 13.7686 6.73205C13.3092 6.46683 12.974 6.03 12.8367 5.51764C12.6994 5.00528 12.7713 4.45937 13.0365 4L13.0365 4Z" stroke="#33363F" stroke-width="2"/>
<path d="M3.0365 4C3.30172 3.54063 3.73856 3.20543 4.25092 3.06815C4.76328 2.93086 5.30919 3.00273 5.76855 3.26795C6.22792 3.53317 6.56312 3.97 6.70041 4.48236C6.83769 4.99472 6.76582 5.54063 6.50061 6C6.23539 6.45937 5.79855 6.79457 5.28619 6.93185C4.77383 7.06914 4.22792 6.99727 3.76855 6.73205C3.30919 6.46683 2.97399 6.03 2.8367 5.51764C2.69942 5.00528 2.77129 4.45937 3.0365 4L3.0365 4Z" stroke="#33363F" stroke-width="2"/>
<path d="M14.6506 14L13.6703 14.1974L13.8319 15H14.6506V14ZM18.4892 12.9042L19.4317 12.5699L18.4892 12.9042ZM12.5498 10.7105L11.9449 9.9142L10.7884 10.7927L12.0217 11.5597L12.5498 10.7105ZM17.6362 13H14.6506V15H17.6362V13ZM17.5467 13.2384C17.5397 13.2186 17.5332 13.181 17.5415 13.1354C17.5494 13.0921 17.5672 13.0593 17.5841 13.0383C17.6164 12.9982 17.643 13 17.6362 13V15C18.7822 15 19.9103 13.9194 19.4317 12.5699L17.5467 13.2384ZM14.769 11C16.4106 11 17.1717 12.1811 17.5467 13.2384L19.4317 12.5699C18.9666 11.2588 17.7175 9 14.769 9V11ZM13.1547 11.5069C13.5391 11.2148 14.051 11 14.769 11V9C13.6071 9 12.6718 9.36215 11.9449 9.9142L13.1547 11.5069ZM12.0217 11.5597C13.0608 12.206 13.4961 13.3324 13.6703 14.1974L15.6309 13.8026C15.413 12.7204 14.8064 10.9364 13.0779 9.86137L12.0217 11.5597Z" fill="#33363F"/>
<path d="M6.98779 10.7105L7.51592 11.5597L8.74923 10.7927L7.59265 9.91418L6.98779 10.7105ZM1.04842 12.9041L1.99088 13.2384L1.99088 13.2384L1.04842 12.9041ZM4.88697 14V15H5.70565L5.86729 14.1974L4.88697 14ZM4.76863 11C5.48665 11 5.99848 11.2148 6.38294 11.5069L7.59265 9.91418C6.86585 9.36214 5.93051 9 4.76863 9V11ZM1.99088 13.2384C2.36593 12.1811 3.12704 11 4.76863 11V9C1.82012 9 0.570998 11.2587 0.105947 12.5699L1.99088 13.2384ZM1.9014 13C1.89462 13 1.92125 12.9982 1.95348 13.0383C1.97037 13.0593 1.98822 13.0921 1.9961 13.1354C2.00441 13.181 1.99793 13.2186 1.99088 13.2384L0.105947 12.5699C-0.372749 13.9194 0.755386 15 1.9014 15V13ZM4.88697 13H1.9014V15H4.88697V13ZM5.86729 14.1974C6.0415 13.3324 6.47676 12.206 7.51592 11.5597L6.45967 9.86135C4.73118 10.9363 4.12461 12.7203 3.90665 13.8026L5.86729 14.1974Z" fill="#33363F"/>
<path d="M9.76855 10C13.3401 10 14.3605 12.5512 14.652 14.0089C14.7603 14.5504 14.3208 15 13.7686 15H5.76855C5.21627 15 4.77685 14.5504 4.88515 14.0089C5.17666 12.5512 6.19702 10 9.76855 10Z" stroke="#33363F" stroke-width="2" stroke-linecap="round"/>
</svg>
